<svg width="68" height="82" viewBox="0 0 68 82" fill="none" xmlns="http://www.w3.org/2000/svg">
<path d="M34.0002 72.0683L33.6459 71.7124L15.3665 53.353C15.3663 53.3529 15.3662 53.3527 15.366 53.3525L34.0002 72.0683ZM34.0002 72.0683L34.3545 71.7124M34.0002 72.0683L34.3545 71.7124M34.3545 71.7124L52.6339 53.353M34.3545 71.7124L52.6339 53.353M52.6339 53.353C52.6341 53.3528 52.6343 53.3526 52.6345 53.3524L52.6339 53.353ZM10.3541 58.5664L10.3538 58.5661C4.08233 52.2947 0.559082 43.7888 0.559082 34.9196C0.559082 26.0505 4.08233 17.5446 10.3538 11.2732C16.6252 5.00177 25.1311 1.47852 34.0002 1.47852C42.8693 1.47852 51.3752 5.00177 57.6467 11.2732C63.8915 17.5181 67.3998 25.988 67.3998 34.8196C67.3998 43.6512 63.8915 52.1211 57.6466 58.3661L57.646 58.3668L36.406 79.6868L36.4052 79.6875C36.0798 80.0156 35.6927 80.276 35.2662 80.4537C34.8397 80.6313 34.3822 80.7228 33.9202 80.7228C33.4582 80.7228 33.0007 80.6313 32.5742 80.4537C32.1477 80.276 31.7606 80.0156 31.4352 79.6875L31.4341 79.6864L10.3541 58.5664ZM46.0427 23.1892L46.0426 23.1892L46.0488 23.1953C47.6142 24.7418 48.8535 26.5864 49.6937 28.6201C50.5338 30.6536 50.9576 32.8349 50.9402 35.035C50.9057 38.3318 49.8984 41.545 48.0446 44.2715C46.1908 46.9982 43.5731 49.1167 40.5198 50.3612C37.4665 51.6058 34.1137 51.9209 30.8819 51.2672C27.6502 50.6134 24.6835 49.0198 22.3541 46.6864C19.2185 43.541 17.4578 39.2809 17.4578 34.8396C17.4578 30.3988 19.2182 26.139 22.3532 22.9937C23.9178 21.4452 25.7731 20.2213 27.8124 19.3924C29.8522 18.5633 32.0359 18.1457 34.2377 18.1637C36.4395 18.1818 38.6161 18.6351 40.6421 19.4976C42.668 20.36 44.5034 21.6146 46.0427 23.1892ZM41.1164 41.7105L41.9545 40.8596H41.7057C43.0944 39.172 43.888 37.0588 43.9401 34.8514L43.9402 34.8514L43.9402 34.8407C43.9451 32.5647 43.1593 30.3577 41.717 28.5969C40.2748 26.8362 38.2658 25.6311 36.0334 25.1877C33.801 24.7443 31.4839 25.0901 29.4782 26.166C27.4725 27.2419 25.9029 28.9811 25.0376 31.0862C24.1723 33.1913 24.0651 35.5316 24.7343 37.707C25.4036 39.8824 26.8077 41.7578 28.7066 43.0125C30.6055 44.2672 32.8813 44.8234 35.1449 44.5859C37.4085 44.3484 39.5193 43.332 41.1164 41.7105Z" fill="#CC7574" stroke="#CC7574"/>
</svg>
