<svg width="121" height="40" viewBox="0 0 121 40" fill="none" xmlns="http://www.w3.org/2000/svg">
<g clip-path="url(#clip0_680_6334)">
<path d="M120.993 0.799805H0L4.93452 28.3664L61.0331 39.1999L116.595 28.3664L120.993 0.799805Z" fill="#AD2724"/>
<path d="M5.39746 27.9099L0.640625 1.33594H120.364L116.125 27.912L61.0327 38.654L5.39746 27.9099Z" stroke="#2F2F2F" stroke-opacity="0.15" stroke-width="1.07211"/>
<path d="M21.5195 24.6863V10.965H27.3129C27.4463 10.965 27.6242 10.9714 27.8465 10.9841C28.0752 10.9905 28.2785 11.0095 28.4564 11.0413C29.2758 11.1683 29.946 11.4383 30.4669 11.8512C30.9942 12.2641 31.3817 12.785 31.6294 13.4139C31.8772 14.0365 32.001 14.732 32.001 15.5007C32.001 16.6505 31.7152 17.6351 31.1435 18.4546C30.5717 19.2677 29.676 19.7695 28.4564 19.9601L27.3129 20.0363H24.1113V24.6863H21.5195ZM29.2568 24.6863L26.5506 19.1025L29.2187 18.588L32.1916 24.6863H29.2568ZM24.1113 17.6161H27.1986C27.332 17.6161 27.4781 17.6097 27.6369 17.597C27.7957 17.5843 27.9418 17.5589 28.0752 17.5208C28.4246 17.4255 28.6946 17.2667 28.8852 17.0443C29.0757 16.8156 29.206 16.5647 29.2758 16.2916C29.3521 16.0121 29.3902 15.7484 29.3902 15.5007C29.3902 15.2529 29.3521 14.9925 29.2758 14.7193C29.206 14.4398 29.0757 14.1889 28.8852 13.9666C28.6946 13.7379 28.4246 13.5759 28.0752 13.4806C27.9418 13.4425 27.7957 13.4171 27.6369 13.4044C27.4781 13.3917 27.332 13.3853 27.1986 13.3853H24.1113V17.6161ZM39.0698 24.9722C38.0153 24.9722 37.0847 24.7467 36.2779 24.2956C35.4775 23.8383 34.8486 23.2126 34.3912 22.4185C33.9402 21.6181 33.7147 20.7033 33.7147 19.6742C33.7147 18.5499 33.937 17.5716 34.3817 16.7394C34.8264 15.9072 35.4394 15.2625 36.2207 14.8051C37.0021 14.3414 37.901 14.1095 38.9174 14.1095C39.9973 14.1095 40.9152 14.3636 41.6711 14.8718C42.4271 15.38 42.9861 16.0946 43.3482 17.0157C43.7103 17.9369 43.8373 19.0199 43.7293 20.265H41.1661V19.3122C41.1661 18.264 40.9978 17.5112 40.6611 17.0539C40.3308 16.5901 39.7876 16.3583 39.0317 16.3583C38.1487 16.3583 37.4976 16.6282 37.0783 17.1682C36.6654 17.7018 36.459 18.4927 36.459 19.5408C36.459 20.5001 36.6654 21.2433 37.0783 21.7706C37.4976 22.2915 38.1106 22.5519 38.9174 22.5519C39.4256 22.5519 39.8607 22.4407 40.2228 22.2184C40.5849 21.9961 40.8612 21.6753 41.0518 21.256L43.6436 21.9992C43.2561 22.9394 42.6431 23.6699 41.8045 24.1908C40.9724 24.7117 40.0608 24.9722 39.0698 24.9722ZM35.6586 20.265V18.3402H42.4811V20.265H35.6586ZM57.989 24.6863V18.607C57.989 17.9273 57.827 17.4001 57.503 17.0253C57.1854 16.6441 56.7439 16.4536 56.1785 16.4536C55.8164 16.4536 55.502 16.5393 55.2352 16.7108C54.9684 16.876 54.7588 17.111 54.6063 17.416C54.4602 17.7145 54.3871 18.0607 54.3871 18.4546L53.3009 17.7304C53.3009 17.0253 53.466 16.4027 53.7964 15.8628C54.133 15.3228 54.5809 14.9036 55.1399 14.605C55.7053 14.3001 56.331 14.1476 57.0171 14.1476C58.1923 14.1476 59.0784 14.497 59.6756 15.1958C60.279 15.8882 60.5808 16.7966 60.5808 17.921V24.6863H57.989ZM45.5827 24.6863V14.3954H47.8695V17.8066H48.1935V24.6863H45.5827ZM51.7953 24.6863V18.607C51.7953 17.9273 51.6334 17.4001 51.3094 17.0253C50.9918 16.6441 50.5503 16.4536 49.9849 16.4536C49.4449 16.4536 49.0098 16.641 48.6795 17.0157C48.3555 17.3842 48.1935 17.8638 48.1935 18.4546L47.1072 17.6923C47.1072 17.0189 47.2756 16.4154 47.6123 15.8818C47.9489 15.3482 48.4 14.9258 48.9653 14.6145C49.5371 14.3033 50.1755 14.1476 50.8806 14.1476C51.6874 14.1476 52.348 14.3191 52.8626 14.6622C53.3835 15.0052 53.7678 15.4626 54.0155 16.0343C54.2633 16.606 54.3871 17.2349 54.3871 17.921V24.6863H51.7953ZM65.9171 24.9722C65.1802 24.9722 64.5545 24.8324 64.04 24.5529C63.5318 24.2671 63.1443 23.8891 62.8775 23.419C62.617 22.9426 62.4868 22.4185 62.4868 21.8468C62.4868 21.3703 62.5599 20.9352 62.706 20.5414C62.8521 20.1475 63.0871 19.8013 63.4111 19.5027C63.7414 19.1978 64.1829 18.9437 64.7356 18.7404C65.1167 18.6007 65.5709 18.4768 66.0982 18.3688C66.6254 18.2608 67.2226 18.1592 67.8896 18.0639C68.5566 17.9623 69.2903 17.8511 70.0907 17.7304L69.1569 18.2449C69.1569 17.6351 69.0108 17.1873 68.7186 16.9014C68.4263 16.6155 67.9372 16.4726 67.2511 16.4726C66.87 16.4726 66.473 16.5647 66.0601 16.7489C65.6472 16.9332 65.3581 17.2603 65.193 17.7304L62.8489 16.9872C63.1094 16.1359 63.5985 15.4435 64.3163 14.9099C65.0341 14.3763 66.0124 14.1095 67.2511 14.1095C68.1595 14.1095 68.9663 14.2493 69.6714 14.5288C70.3765 14.8083 70.9102 15.2911 71.2722 15.9771C71.4755 16.3583 71.5962 16.7394 71.6343 17.1206C71.6724 17.5017 71.6915 17.9273 71.6915 18.3974V24.6863H69.4237V22.571L69.7477 23.0093C69.2458 23.7017 68.7027 24.2035 68.1183 24.5148C67.5402 24.8197 66.8065 24.9722 65.9171 24.9722ZM66.4698 22.933C66.9462 22.933 67.3464 22.8505 67.6704 22.6853C68.0007 22.5138 68.2612 22.32 68.4518 22.1041C68.6487 21.8881 68.7821 21.707 68.852 21.5609C68.9854 21.2814 69.0616 20.9574 69.0806 20.589C69.1061 20.2142 69.1188 19.9029 69.1188 19.6552L69.8811 19.8458C69.1124 19.9728 68.4899 20.0808 68.0134 20.1697C67.537 20.2523 67.1527 20.3285 66.8605 20.3984C66.5683 20.4683 66.311 20.5445 66.0886 20.6271C65.8345 20.7288 65.6281 20.8399 65.4693 20.9606C65.3168 21.075 65.2025 21.202 65.1263 21.3418C65.0564 21.4815 65.0214 21.6372 65.0214 21.8087C65.0214 22.0437 65.0786 22.247 65.193 22.4185C65.3136 22.5837 65.482 22.7107 65.698 22.7996C65.914 22.8886 66.1712 22.933 66.4698 22.933ZM74.3597 24.6863V10.6792H76.9515V24.6863H74.3597ZM83.6387 24.9912C82.8319 24.9912 82.1744 24.8547 81.6662 24.5815C81.158 24.3084 80.761 23.9621 80.4751 23.5429C80.1956 23.1236 79.9955 22.6885 79.8748 22.2375C79.7541 21.7801 79.6811 21.364 79.6557 20.9892C79.6303 20.6144 79.6176 20.3413 79.6176 20.1697V14.3954H82.2475V19.255C82.2475 19.49 82.2602 19.7918 82.2856 20.1602C82.311 20.5223 82.3904 20.8876 82.5238 21.256C82.6572 21.6244 82.8732 21.9325 83.1718 22.1803C83.4767 22.428 83.9055 22.5519 84.4581 22.5519C84.6805 22.5519 84.9187 22.517 85.1728 22.4471C85.4269 22.3772 85.6651 22.2438 85.8874 22.0469C86.1098 21.8436 86.2908 21.5482 86.4306 21.1607C86.5767 20.7669 86.6497 20.2523 86.6497 19.6171L88.1362 20.3222C88.1362 21.1353 87.971 21.8976 87.6407 22.6091C87.3104 23.3205 86.8117 23.8954 86.1447 24.3338C85.484 24.7721 84.6487 24.9912 83.6387 24.9912ZM86.9737 24.6863V21.2751H86.6497V14.3954H89.2606V24.6863H86.9737ZM90.7802 24.6863L94.4583 19.4837L90.8565 14.3954H93.9057L95.9638 17.4445L97.9839 14.3954H101.033L97.4313 19.4837L101.128 24.6863H98.0792L95.9638 21.5228L93.8294 24.6863H90.7802Z" fill="white"/>
<path d="M102.6 12.8092V10.8794H103.415C103.434 10.8794 103.459 10.8803 103.49 10.8821C103.522 10.883 103.551 10.8857 103.576 10.8901C103.691 10.908 103.786 10.946 103.859 11.0041C103.933 11.0621 103.987 11.1354 104.022 11.2238C104.057 11.3114 104.075 11.4092 104.075 11.5173C104.075 11.679 104.034 11.8175 103.954 11.9328C103.874 12.0471 103.748 12.1177 103.576 12.1445L103.415 12.1552H102.965V12.8092H102.6ZM103.689 12.8092L103.308 12.0239L103.683 11.9515L104.101 12.8092H103.689ZM102.965 11.8148H103.399C103.418 11.8148 103.438 11.8139 103.461 11.8122C103.483 11.8104 103.504 11.8068 103.522 11.8014C103.572 11.788 103.61 11.7657 103.636 11.7344C103.663 11.7023 103.681 11.667 103.691 11.6286C103.702 11.5893 103.707 11.5522 103.707 11.5173C103.707 11.4825 103.702 11.4459 103.691 11.4074C103.681 11.3681 103.663 11.3328 103.636 11.3016C103.61 11.2694 103.572 11.2466 103.522 11.2332C103.504 11.2279 103.483 11.2243 103.461 11.2225C103.438 11.2207 103.418 11.2198 103.399 11.2198H102.965V11.8148Z" fill="white"/>
<path d="M103.38 13.8926C104.491 13.8926 105.391 12.9923 105.391 11.8816C105.391 10.771 104.491 9.87061 103.38 9.87061C102.269 9.87061 101.369 10.771 101.369 11.8816C101.369 12.9923 102.269 13.8926 103.38 13.8926Z" stroke="white" stroke-width="0.268028"/>
</g>
<defs>
<clipPath id="clip0_680_6334">
<rect width="121" height="40" fill="white"/>
</clipPath>
</defs>
</svg>
