<svg width="16" height="16" viewBox="0 0 16 16" fill="none" xmlns="http://www.w3.org/2000/svg">
<path d="M7.908 3.00101C6.65838 3.02382 5.41747 3.51162 4.46446 4.46464C2.51183 6.41726 2.51183 9.58308 4.46446 11.5357C4.63636 11.7076 4.81739 11.8642 5.0059 12.0055C5.27103 12.2043 5.32482 12.5803 5.12605 12.8455C4.92727 13.1106 4.5512 13.1644 4.28607 12.9656C4.05221 12.7903 3.82816 12.5965 3.61593 12.3842C1.19467 9.96298 1.19467 6.03736 3.61593 3.61611C4.69371 2.53833 6.0705 1.94024 7.4787 1.82202L7.01005 1.35337C6.77574 1.11905 6.77574 0.739152 7.01005 0.504837C7.24437 0.270523 7.62427 0.270523 7.85858 0.504838L9.55564 2.20189C9.78996 2.43621 9.78996 2.81611 9.55564 3.05042L7.85858 4.74748C7.62427 4.98179 7.24437 4.98179 7.01005 4.74748C6.77574 4.51316 6.77574 4.13326 7.01005 3.89895L7.908 3.00101ZM8.09198 12.9993C9.3416 12.9765 10.5825 12.4887 11.5355 11.5357C13.4881 9.58305 13.4881 6.41722 11.5355 4.4646C11.3636 4.2927 11.1826 4.13615 10.9941 3.99482C10.7289 3.79604 10.6752 3.41997 10.8739 3.15484C11.0727 2.88971 11.4488 2.83591 11.7139 3.03469C11.9478 3.21002 12.1718 3.40385 12.384 3.61607C14.8053 6.03732 14.8053 9.96295 12.384 12.3842C11.3063 13.462 9.92947 14.0601 8.52127 14.1783L8.98992 14.6469C9.22424 14.8813 9.22424 15.2612 8.98992 15.4955C8.75561 15.7298 8.37571 15.7298 8.14139 15.4955L6.44433 13.7984C6.21002 13.5641 6.21002 13.1842 6.44433 12.9499L8.14139 11.2528C8.37571 11.0185 8.75561 11.0185 8.98992 11.2528C9.22424 11.4871 9.22424 11.867 8.98992 12.1014L8.09198 12.9993Z" fill="#26344F"/>
</svg>
