<svg width="12" height="12" viewBox="0 0 12 12" fill="none" xmlns="http://www.w3.org/2000/svg">
<path d="M7.30887 8.01596C6.53903 8.63179 5.56252 9.00004 4.5 9.00004C2.01472 9.00004 0 6.98531 0 4.50002C0 2.01473 2.01472 0 4.5 0C6.98528 0 9 2.01473 9 4.50002C9 5.56252 8.63177 6.53901 8.01597 7.30885L11.8536 11.1464C12.0488 11.3417 12.0488 11.6583 11.8536 11.8536C11.6583 12.0488 11.3417 12.0488 11.1464 11.8536L7.30887 8.01596ZM8 4.50002C8 2.56701 6.433 1 4.5 1C2.567 1 1 2.56701 1 4.50002C1 6.43302 2.567 8.00003 4.5 8.00003C6.433 8.00003 8 6.43302 8 4.50002Z" fill="#858499"/>
</svg>
