<svg width="21" height="20" viewBox="0 0 21 20" fill="none" xmlns="http://www.w3.org/2000/svg">
<path d="M8.83333 15.0001C9.05435 15.0001 9.26631 14.9123 9.42259 14.756C9.57887 14.5997 9.66667 14.3878 9.66667 14.1667V9.16675C9.66667 8.94573 9.57887 8.73377 9.42259 8.57749C9.26631 8.42121 9.05435 8.33341 8.83333 8.33341C8.61232 8.33341 8.40036 8.42121 8.24408 8.57749C8.0878 8.73377 8 8.94573 8 9.16675V14.1667C8 14.3878 8.0878 14.5997 8.24408 14.756C8.40036 14.9123 8.61232 15.0001 8.83333 15.0001ZM17.1667 5.00008H13.8333V4.16675C13.8333 3.50371 13.5699 2.86782 13.1011 2.39898C12.6323 1.93014 11.9964 1.66675 11.3333 1.66675H9.66667C9.00363 1.66675 8.36774 1.93014 7.8989 2.39898C7.43006 2.86782 7.16667 3.50371 7.16667 4.16675V5.00008H3.83333C3.61232 5.00008 3.40036 5.08788 3.24408 5.24416C3.0878 5.40044 3 5.6124 3 5.83341C3 6.05443 3.0878 6.26639 3.24408 6.42267C3.40036 6.57895 3.61232 6.66675 3.83333 6.66675H4.66667V15.8334C4.66667 16.4965 4.93006 17.1323 5.3989 17.6012C5.86774 18.07 6.50363 18.3334 7.16667 18.3334H13.8333C14.4964 18.3334 15.1323 18.07 15.6011 17.6012C16.0699 17.1323 16.3333 16.4965 16.3333 15.8334V6.66675H17.1667C17.3877 6.66675 17.5996 6.57895 17.7559 6.42267C17.9122 6.26639 18 6.05443 18 5.83341C18 5.6124 17.9122 5.40044 17.7559 5.24416C17.5996 5.08788 17.3877 5.00008 17.1667 5.00008ZM8.83333 4.16675C8.83333 3.94573 8.92113 3.73377 9.07741 3.57749C9.23369 3.42121 9.44565 3.33341 9.66667 3.33341H11.3333C11.5543 3.33341 11.7663 3.42121 11.9226 3.57749C12.0789 3.73377 12.1667 3.94573 12.1667 4.16675V5.00008H8.83333V4.16675ZM14.6667 15.8334C14.6667 16.0544 14.5789 16.2664 14.4226 16.4227C14.2663 16.579 14.0543 16.6667 13.8333 16.6667H7.16667C6.94565 16.6667 6.73369 16.579 6.57741 16.4227C6.42113 16.2664 6.33333 16.0544 6.33333 15.8334V6.66675H14.6667V15.8334ZM12.1667 15.0001C12.3877 15.0001 12.5996 14.9123 12.7559 14.756C12.9122 14.5997 13 14.3878 13 14.1667V9.16675C13 8.94573 12.9122 8.73377 12.7559 8.57749C12.5996 8.42121 12.3877 8.33341 12.1667 8.33341C11.9457 8.33341 11.7337 8.42121 11.5774 8.57749C11.4211 8.73377 11.3333 8.94573 11.3333 9.16675V14.1667C11.3333 14.3878 11.4211 14.5997 11.5774 14.756C11.7337 14.9123 11.9457 15.0001 12.1667 15.0001Z" fill="#AD2724"/>
</svg>
