<svg width="20" height="20" viewBox="0 0 20 20" fill="none" xmlns="http://www.w3.org/2000/svg">
<g clip-path="url(#clip0_528_5968)">
<path fill-rule="evenodd" clip-rule="evenodd" d="M17.5358 4.99042C17.6286 5.02745 17.708 5.09091 17.764 5.17268C17.82 5.25444 17.8499 5.35079 17.85 5.44942V5.81965V5.8846V5.95172V15.6665C17.8502 15.7296 17.8375 15.7922 17.8127 15.8505C17.6549 16.3305 17.3838 16.7668 17.0217 17.1236C16.6132 17.5173 16.139 17.8388 15.6198 18.074C14.1696 18.7604 12.2844 19.1025 10.4123 19.096C8.54023 19.0895 6.67695 18.7387 5.25092 18.0372C4.76744 17.8105 4.32854 17.5011 3.95454 17.1236C3.59193 16.7516 3.3265 16.2984 3.1811 15.8029C3.16576 15.7531 3.15907 15.7011 3.16132 15.6491V6.37824C3.15446 6.35979 3.1486 6.341 3.14375 6.32195C2.57905 3.92303 3.73481 2.14982 5.61787 1.09542C6.76978 0.477777 8.04449 0.115002 9.35322 0.0323662C10.6974 -0.0755981 12.0498 0.0872021 13.3281 0.51085C15.3737 1.2145 17.0239 2.64563 17.4479 4.88649C17.4765 4.92113 17.5051 4.95578 17.5292 4.98825L17.5358 4.99042ZM15.9648 7.88514C16.2726 7.75618 16.5669 7.59811 16.8437 7.41315V15.595C16.736 15.9105 16.5581 16.1983 16.3229 16.4372C15.9967 16.7502 15.6184 17.0057 15.2045 17.1929C13.8906 17.8142 12.1415 18.1238 10.4255 18.1173C8.70942 18.1109 7.00214 17.7947 5.70795 17.1604C5.32938 16.983 4.98511 16.742 4.69062 16.4481C4.4539 16.2061 4.27586 15.9145 4.16987 15.595V7.39583C4.41389 7.56166 4.67192 7.70653 4.94111 7.82885L5.04877 8.24454L5.06814 8.32007C5.28837 9.17981 5.55708 10.2288 6.25288 10.2646C6.56465 10.28 6.91817 10.0413 7.26327 9.80826C8.03212 9.28911 8.75917 8.79818 8.8896 11.2086L9.01484 13.549C9.00825 14.506 9.67182 15.0473 10.309 15.0473C11.6047 15.0492 11.4291 13.7268 11.3109 12.8361C11.2946 12.7132 11.2794 12.5986 11.2692 12.4968C11.2261 12.0347 11.2129 11.5705 11.2297 11.1068C11.1879 8.96769 13.1918 8.76417 13.2072 10.6738C13.1982 10.8509 13.232 11.0276 13.3059 11.1894C13.3798 11.3511 13.4916 11.4932 13.6321 11.604C13.7727 11.7148 13.9379 11.7911 14.1143 11.8266C14.2906 11.8621 14.473 11.8558 14.6464 11.8083C15.5406 11.5303 15.5585 10.6119 15.5763 9.69603C15.5862 9.18502 15.5961 8.67479 15.7582 8.27702C15.8166 8.14127 15.8856 8.01023 15.9648 7.88514ZM15.176 4.62452C13.9916 4.20449 12.3415 3.94468 10.5046 3.94468C8.66767 3.94468 7.01753 4.21099 5.8332 4.62452C4.80048 4.99042 4.16108 5.43859 4.16108 5.8781C4.16108 6.31762 4.80048 6.76579 5.8332 7.13169C7.01753 7.56471 8.66767 7.81369 10.5046 7.81369C12.3415 7.81369 13.9873 7.56038 15.176 7.13819C15.8725 6.89137 16.3889 6.6099 16.6525 6.31545C16.6491 6.28451 16.6491 6.2533 16.6525 6.22235C16.6597 5.94969 16.6465 5.67687 16.613 5.40611C16.1947 5.04943 15.7052 4.78317 15.176 4.62452ZM15.5144 3.70435C14.2214 3.24795 12.4525 2.96443 10.5101 2.9639L10.5156 2.9639H10.5046L10.5101 2.9639C8.57861 2.96443 6.79877 3.24579 5.50581 3.70435C4.96805 3.88309 4.46176 4.14312 4.00507 4.47513C4.23579 3.36011 5.01582 2.49191 6.0771 1.89651C7.10745 1.34491 8.24688 1.0199 9.41694 0.943868C10.6413 0.847475 11.8728 0.998509 13.0358 1.38771C14.4179 1.85754 15.5891 2.71491 16.1977 3.98582C15.9749 3.88074 15.7468 3.7868 15.5144 3.70435Z" fill="#26344F"/>
<path d="M17.85 5.81965V5.44942C17.8499 5.35079 17.82 5.25444 17.764 5.17268C17.708 5.09091 17.6286 5.02746 17.5358 4.99042L17.5292 4.98825C17.5051 4.95578 17.4765 4.92113 17.4479 4.88649C17.0239 2.64563 15.3737 1.2145 13.3281 0.51085C12.0498 0.0872021 10.6974 -0.0755981 9.35322 0.0323662C8.04449 0.115002 6.76978 0.477777 5.61787 1.09542C3.73481 2.14982 2.57905 3.92303 3.14375 6.32195C3.1486 6.341 3.15446 6.35979 3.16132 6.37824V15.6491C3.15907 15.7011 3.16576 15.7531 3.1811 15.8029C3.3265 16.2984 3.59193 16.7516 3.95454 17.1236C4.32854 17.5011 4.76744 17.8105 5.25092 18.0372C6.67695 18.7387 8.54023 19.0895 10.4123 19.096C12.2844 19.1025 14.1696 18.7604 15.6198 18.074C16.139 17.8388 16.6132 17.5173 17.0217 17.1236C17.3838 16.7668 17.6549 16.3305 17.8127 15.8505C17.8375 15.7922 17.8502 15.7296 17.85 15.6665V5.95172M17.85 5.81965C17.85 5.8413 17.85 5.86295 17.85 5.8846M17.85 5.81965V5.8846M17.85 5.8846C17.85 5.90625 17.85 5.93007 17.85 5.95172M17.85 5.8846V5.95172M5.04877 8.24454L4.94111 7.82885C4.67192 7.70653 4.41389 7.56166 4.16987 7.39583V15.595C4.27586 15.9145 4.4539 16.2061 4.69062 16.4481C4.98511 16.742 5.32938 16.9831 5.70795 17.1604C7.00214 17.7947 8.70942 18.1109 10.4255 18.1173C12.1415 18.1238 13.8906 17.8142 15.2045 17.1929C15.6184 17.0057 15.9967 16.7502 16.3229 16.4372C16.5581 16.1983 16.736 15.9105 16.8437 15.595V7.41315C16.5669 7.59811 16.2726 7.75618 15.9648 7.88514C15.8856 8.01024 15.8166 8.14127 15.7582 8.27702C15.5961 8.67479 15.5862 9.18502 15.5763 9.69603C15.5585 10.6119 15.5406 11.5303 14.6464 11.8083C14.473 11.8558 14.2906 11.8621 14.1143 11.8266C13.9379 11.7911 13.7727 11.7148 13.6321 11.604C13.4916 11.4932 13.3798 11.3511 13.3059 11.1894C13.232 11.0276 13.1982 10.8509 13.2072 10.6738C13.1918 8.76417 11.1879 8.96769 11.2297 11.1068C11.2129 11.5705 11.2261 12.0347 11.2692 12.4968C11.2794 12.5986 11.2946 12.7132 11.3109 12.8361C11.4291 13.7268 11.6047 15.0492 10.309 15.0473C9.67182 15.0473 9.00825 14.506 9.01484 13.549L8.8896 11.2086C8.75917 8.79818 8.03212 9.28911 7.26327 9.80826C6.91817 10.0413 6.56465 10.28 6.25288 10.2646C5.55708 10.2288 5.28837 9.17981 5.06814 8.32007M5.04877 8.24454C5.05519 8.26953 5.06164 8.29472 5.06814 8.32007M5.04877 8.24454L5.06814 8.32007M10.5101 2.9639C12.4525 2.96443 14.2214 3.24795 15.5144 3.70435C15.7468 3.7868 15.9749 3.88074 16.1977 3.98582C15.5891 2.71491 14.4179 1.85754 13.0358 1.38771C11.8728 0.998509 10.6413 0.847475 9.41694 0.943868C8.24688 1.0199 7.10745 1.34491 6.0771 1.89651C5.01582 2.49191 4.23579 3.36011 4.00507 4.47513C4.46176 4.14312 4.96805 3.88309 5.50581 3.70435C6.79877 3.24579 8.57861 2.96443 10.5101 2.9639ZM10.5101 2.9639L10.5156 2.9639H10.5046L10.5101 2.9639ZM15.176 4.62452C13.9916 4.20449 12.3415 3.94468 10.5046 3.94468C8.66767 3.94468 7.01753 4.21099 5.8332 4.62452C4.80048 4.99042 4.16108 5.43859 4.16108 5.8781C4.16108 6.31762 4.80048 6.76579 5.8332 7.13169C7.01753 7.56471 8.66767 7.81369 10.5046 7.81369C12.3415 7.81369 13.9873 7.56038 15.176 7.13819C15.8725 6.89137 16.3889 6.6099 16.6525 6.31545C16.6491 6.28451 16.6491 6.2533 16.6525 6.22235C16.6597 5.94969 16.6465 5.67687 16.613 5.40611C16.1947 5.04943 15.7052 4.78317 15.176 4.62452Z" stroke="#26344F" stroke-width="0.7"/>
</g>
<defs>
<clipPath id="clip0_528_5968">
<rect width="20" height="20" fill="white"/>
</clipPath>
</defs>
</svg>
