<svg width="20" height="20" viewBox="0 0 20 20" fill="none" xmlns="http://www.w3.org/2000/svg">
<path d="M8.85359 13.1464C9.04885 13.3417 9.04885 13.6583 8.85359 13.8536L7.35359 15.3536C6.60727 16.0999 5.39802 16.1011 4.65018 15.3572C4.55751 15.2665 4.5 15.14 4.5 15C4.5 14.7239 4.72386 14.5 5 14.5C5.13808 14.5 5.26309 14.556 5.35357 14.6465C5.7106 15.0035 6.28946 15.0035 6.64648 14.6464L8.14648 13.1464C8.34175 12.9512 8.65833 12.9512 8.85359 13.1464ZM11.1463 3.14634C12.7223 1.57036 15.2775 1.57036 16.8534 3.14634C18.4294 4.72231 18.4294 7.27747 16.8534 8.85344L8.85345 16.8534C7.27747 18.4294 4.72231 18.4294 3.14634 16.8534C1.57036 15.2775 1.57036 12.7223 3.14634 11.1463L11.1463 3.14634ZM16.1463 3.85344C14.9609 2.66799 13.0389 2.66799 11.8534 3.85344L8.207 7.49989L12.4999 11.7928L16.1463 8.14634C17.3318 6.96089 17.3318 5.03889 16.1463 3.85344ZM11.7928 12.4999L7.49989 8.207L3.85344 11.8534C2.66799 13.0389 2.66799 14.9609 3.85344 16.1463C5.03889 17.3318 6.96089 17.3318 8.14634 16.1463L11.7928 12.4999Z" fill="#4671EE"/>
</svg>
