<svg width="20" height="20" viewBox="0 0 20 20" fill="none" xmlns="http://www.w3.org/2000/svg">
<path d="M16.7999 3.84167C15.9152 2.95668 14.7422 2.41861 13.4943 2.32533C12.2464 2.23204 11.0064 2.58973 9.99995 3.33334C8.93966 2.54471 7.61994 2.1871 6.30655 2.33254C4.99315 2.47798 3.78364 3.11566 2.92159 4.11716C2.05953 5.11867 1.60896 6.40961 1.66061 7.73002C1.71226 9.05043 2.26229 10.3022 3.19994 11.2333L9.40828 17.4417C9.48575 17.5198 9.57792 17.5818 9.67946 17.6241C9.78101 17.6664 9.88994 17.6882 9.99995 17.6882C10.11 17.6882 10.2189 17.6664 10.3204 17.6241C10.422 17.5818 10.5141 17.5198 10.5916 17.4417L16.7999 11.2333C17.2855 10.7481 17.6707 10.172 17.9335 9.53781C18.1963 8.90367 18.3315 8.22395 18.3315 7.53751C18.3315 6.85106 18.1963 6.17135 17.9335 5.5372C17.6707 4.90305 17.2855 4.3269 16.7999 3.84167ZM15.6249 10.0583L9.99995 15.675L4.37494 10.0583C3.87926 9.56059 3.54159 8.92755 3.4043 8.23862C3.26702 7.5497 3.33622 6.83558 3.60324 6.18584C3.87025 5.53609 4.32319 4.97967 4.90523 4.58636C5.48727 4.19305 6.1725 3.98037 6.87494 3.97501C7.81337 3.97731 8.71253 4.35195 9.37495 5.01667C9.45241 5.09478 9.54458 5.15678 9.64613 5.19908C9.74768 5.24139 9.8566 5.26317 9.96661 5.26317C10.0766 5.26317 10.1855 5.24139 10.2871 5.19908C10.3886 5.15678 10.4808 5.09478 10.5583 5.01667C11.2402 4.42574 12.1212 4.11596 13.0229 4.15003C13.9246 4.18409 14.7797 4.55946 15.4151 5.20016C16.0505 5.84087 16.4188 6.69904 16.4453 7.601C16.4719 8.50296 16.1548 9.38133 15.5583 10.0583H15.6249Z" fill="#26344F"/>
</svg>
