<svg width="20" height="20" viewBox="0 0 20 20" fill="none" xmlns="http://www.w3.org/2000/svg">
<path d="M10.25 10.1837C10.6947 9.79877 11.0513 9.32273 11.2958 8.78785C11.5402 8.25296 11.6667 7.67175 11.6667 7.08366C11.6667 5.97859 11.2277 4.91878 10.4463 4.13738C9.66492 3.35598 8.60511 2.91699 7.50004 2.91699C6.39497 2.91699 5.33516 3.35598 4.55376 4.13738C3.77236 4.91878 3.33337 5.97859 3.33337 7.08366C3.33337 7.67175 3.45988 8.25296 3.70431 8.78785C3.94875 9.32273 4.30539 9.79877 4.75004 10.1837C3.58349 10.7119 2.59376 11.5649 1.89919 12.6408C1.20462 13.7166 0.834601 14.9698 0.833374 16.2503C0.833374 16.4713 0.921171 16.6833 1.07745 16.8396C1.23373 16.9959 1.44569 17.0837 1.66671 17.0837C1.88772 17.0837 2.09968 16.9959 2.25596 16.8396C2.41224 16.6833 2.50004 16.4713 2.50004 16.2503C2.50004 14.9242 3.02682 13.6525 3.96451 12.7148C4.90219 11.7771 6.17396 11.2503 7.50004 11.2503C8.82612 11.2503 10.0979 11.7771 11.0356 12.7148C11.9733 13.6525 12.5 14.9242 12.5 16.2503C12.5 16.4713 12.5878 16.6833 12.7441 16.8396C12.9004 16.9959 13.1124 17.0837 13.3334 17.0837C13.5544 17.0837 13.7663 16.9959 13.9226 16.8396C14.0789 16.6833 14.1667 16.4713 14.1667 16.2503C14.1655 14.9698 13.7955 13.7166 13.1009 12.6408C12.4063 11.5649 11.4166 10.7119 10.25 10.1837ZM7.50004 9.58366C7.00559 9.58366 6.52224 9.43704 6.11111 9.16233C5.69999 8.88763 5.37956 8.49718 5.19034 8.04037C5.00112 7.58355 4.95161 7.08089 5.04808 6.59593C5.14454 6.11098 5.38264 5.66552 5.73227 5.31589C6.0819 4.96626 6.52736 4.72816 7.01231 4.6317C7.49727 4.53523 7.99993 4.58474 8.45675 4.77396C8.91356 4.96318 9.30401 5.28361 9.57871 5.69473C9.85342 6.10586 10 6.58921 10 7.08366C10 7.7467 9.73665 8.38259 9.26781 8.85143C8.79897 9.32027 8.16308 9.58366 7.50004 9.58366ZM15.6167 9.85033C16.15 9.24977 16.4984 8.50787 16.6199 7.71394C16.7414 6.92001 16.6308 6.10789 16.3015 5.37533C15.9722 4.64276 15.4382 4.02099 14.7638 3.58484C14.0893 3.1487 13.3032 2.91678 12.5 2.91699C12.279 2.91699 12.0671 3.00479 11.9108 3.16107C11.7545 3.31735 11.6667 3.52931 11.6667 3.75033C11.6667 3.97134 11.7545 4.1833 11.9108 4.33958C12.0671 4.49586 12.279 4.58366 12.5 4.58366C13.1631 4.58366 13.799 4.84705 14.2678 5.31589C14.7366 5.78473 15 6.42062 15 7.08366C14.9989 7.52136 14.8828 7.95108 14.6634 8.32984C14.4441 8.70861 14.1291 9.02314 13.75 9.24199C13.6265 9.31326 13.5233 9.41505 13.4503 9.53761C13.3774 9.66017 13.3371 9.79941 13.3334 9.94199C13.3299 10.0835 13.3625 10.2235 13.4281 10.3489C13.4937 10.4743 13.5902 10.5809 13.7084 10.6587L14.0334 10.8753L14.1417 10.9337C15.1462 11.4101 15.9936 12.1637 16.5842 13.1056C17.1747 14.0475 17.4838 15.1386 17.475 16.2503C17.475 16.4713 17.5628 16.6833 17.7191 16.8396C17.8754 16.9959 18.0874 17.0837 18.3084 17.0837C18.5294 17.0837 18.7413 16.9959 18.8976 16.8396C19.0539 16.6833 19.1417 16.4713 19.1417 16.2503C19.1485 14.9715 18.8282 13.7122 18.2113 12.592C17.5943 11.4719 16.7012 10.5281 15.6167 9.85033Z" fill="#26344F"/>
</svg>
