<svg width="20" height="20" viewBox="0 0 20 20" fill="none" xmlns="http://www.w3.org/2000/svg">
<path d="M17.5 13.3337H5.83329C5.61228 13.3337 5.40032 13.2459 5.24404 13.0896C5.08776 12.9333 4.99996 12.7213 4.99996 12.5003C4.99996 12.2793 5.08776 12.0674 5.24404 11.9111C5.40032 11.7548 5.61228 11.667 5.83329 11.667H14.5333C15.0905 11.667 15.6318 11.4809 16.0711 11.1382C16.5104 10.7955 16.8227 10.3158 16.9583 9.77533L18.3333 4.36699C18.3645 4.244 18.3672 4.1155 18.3412 3.9913C18.3152 3.8671 18.2612 3.75048 18.1833 3.65033C18.1022 3.5476 17.9982 3.46541 17.8794 3.41039C17.7607 3.35538 17.6307 3.32909 17.5 3.33366H5.63329C5.46137 2.84737 5.14323 2.42616 4.72251 2.12777C4.30179 1.82939 3.79908 1.66844 3.28329 1.66699H2.49996C2.27895 1.66699 2.06698 1.75479 1.9107 1.91107C1.75442 2.06735 1.66663 2.27931 1.66663 2.50033C1.66663 2.72134 1.75442 2.9333 1.9107 3.08958C2.06698 3.24586 2.27895 3.33366 2.49996 3.33366H3.28329C3.47365 3.32811 3.66017 3.38794 3.8118 3.50317C3.96342 3.6184 4.071 3.7821 4.11663 3.96699L4.16663 4.36699L5.60829 10.0003C4.94525 10.0302 4.32122 10.3222 3.87348 10.8121C3.42573 11.302 3.19096 11.9498 3.22079 12.6128C3.25063 13.2759 3.54264 13.8999 4.03258 14.3476C4.52251 14.7954 5.17025 15.0302 5.83329 15.0003H5.98329C5.84624 15.3779 5.8022 15.783 5.8549 16.1812C5.9076 16.5795 6.0555 16.9592 6.28606 17.2881C6.51662 17.6171 6.82306 17.8856 7.17942 18.071C7.53578 18.2565 7.93158 18.3533 8.33329 18.3533C8.735 18.3533 9.1308 18.2565 9.48717 18.071C9.84353 17.8856 10.15 17.6171 10.3805 17.2881C10.6111 16.9592 10.759 16.5795 10.8117 16.1812C10.8644 15.783 10.8203 15.3779 10.6833 15.0003H12.65C12.5129 15.3779 12.4689 15.783 12.5216 16.1812C12.5743 16.5795 12.7222 16.9592 12.9527 17.2881C13.1833 17.6171 13.4897 17.8856 13.8461 18.071C14.2025 18.2565 14.5982 18.3533 15 18.3533C15.4017 18.3533 15.7975 18.2565 16.1538 18.071C16.5102 17.8856 16.8166 17.6171 17.0472 17.2881C17.2778 16.9592 17.4256 16.5795 17.4784 16.1812C17.5311 15.783 17.487 15.3779 17.35 15.0003H17.5C17.721 15.0003 17.9329 14.9125 18.0892 14.7562C18.2455 14.6 18.3333 14.388 18.3333 14.167C18.3333 13.946 18.2455 13.734 18.0892 13.5777C17.9329 13.4215 17.721 13.3337 17.5 13.3337ZM16.4333 5.00033L15.3416 9.36699C15.296 9.55189 15.1884 9.71558 15.0368 9.83081C14.8852 9.94605 14.6987 10.0059 14.5083 10.0003H7.31663L6.06663 5.00033H16.4333ZM8.33329 16.667C8.16848 16.667 8.00736 16.6181 7.87032 16.5266C7.73328 16.435 7.62647 16.3048 7.56339 16.1526C7.50032 16.0003 7.48382 15.8327 7.51597 15.6711C7.54813 15.5094 7.62749 15.3609 7.74404 15.2444C7.86058 15.1279 8.00907 15.0485 8.17072 15.0163C8.33237 14.9842 8.49992 15.0007 8.6522 15.0638C8.80447 15.1268 8.93462 15.2336 9.02618 15.3707C9.11775 15.5077 9.16663 15.6688 9.16663 15.8337C9.16663 16.0547 9.07883 16.2666 8.92255 16.4229C8.76627 16.5792 8.55431 16.667 8.33329 16.667ZM15 16.667C14.8351 16.667 14.674 16.6181 14.537 16.5266C14.3999 16.435 14.2931 16.3048 14.2301 16.1526C14.167 16.0003 14.1505 15.8327 14.1826 15.6711C14.2148 15.5094 14.2942 15.3609 14.4107 15.2444C14.5272 15.1279 14.6757 15.0485 14.8374 15.0163C14.999 14.9842 15.1666 15.0007 15.3189 15.0638C15.4711 15.1268 15.6013 15.2336 15.6929 15.3707C15.7844 15.5077 15.8333 15.6688 15.8333 15.8337C15.8333 16.0547 15.7455 16.2666 15.5892 16.4229C15.4329 16.5792 15.221 16.667 15 16.667Z" fill="#26344F"/>
</svg>
