<svg width="17" height="12" viewBox="0 0 17 12" fill="none" xmlns="http://www.w3.org/2000/svg">
<path d="M1.6665 0C0.838077 0 0.166504 0.671573 0.166504 1.5V8.5C0.166504 9.32843 0.838077 10 1.6665 10H12.6665C13.4949 10 14.1665 9.32843 14.1665 8.5V1.5C14.1665 0.671573 13.4949 0 12.6665 0H1.6665ZM4.1665 1V2C4.1665 3.10457 3.27107 4 2.1665 4L1.1665 4V3H2.1665C2.71879 3 3.1665 2.55228 3.1665 2V1H4.1665ZM7.1665 6.75C6.20001 6.75 5.4165 5.9665 5.4165 5C5.4165 4.0335 6.20001 3.25 7.1665 3.25C8.133 3.25 8.9165 4.0335 8.9165 5C8.9165 5.9665 8.133 6.75 7.1665 6.75ZM1.1665 7V6H2.1665C3.27107 6 4.1665 6.89543 4.1665 8V9H3.1665V8C3.1665 7.44772 2.71879 7 2.1665 7H1.1665ZM12.1665 7C11.6142 7 11.1665 7.44772 11.1665 8V9H10.1665V8C10.1665 6.89543 11.0619 6 12.1665 6H13.1665V7H12.1665ZM12.1665 3H13.1665V4L12.1665 4C11.0619 4 10.1665 3.10457 10.1665 2V1H11.1665V2C11.1665 2.55228 11.6142 3 12.1665 3ZM15.1666 8.49997C15.1666 9.88069 14.0473 11 12.6666 11H2.25195C2.45787 11.5826 3.01349 12 3.6666 12H12.6666C14.5996 12 16.1666 10.433 16.1666 8.49997V3.49997C16.1666 2.84686 15.7492 2.29125 15.1666 2.08533V8.49997Z" fill="#4671EE"/>
</svg>
