<svg width="20" height="20" viewBox="0 0 20 20" fill="none" xmlns="http://www.w3.org/2000/svg">
<path d="M8.74999 17.5H4.99999C4.55797 17.5 4.13404 17.3244 3.82148 17.0118C3.50892 16.6993 3.33333 16.2754 3.33333 15.8333V5.83333C3.33333 5.39131 3.50892 4.96738 3.82148 4.65482C4.13404 4.34226 4.55797 4.16667 4.99999 4.16667H15C15.442 4.16667 15.8659 4.34226 16.1785 4.65482C16.4911 4.96738 16.6667 5.39131 16.6667 5.83333V8.33333M13.3333 2.5V5.83333M6.66666 2.5V5.83333M3.33333 9.16667H11.6667M15 13.75V15L15.4167 15.4167M11.6667 15C11.6667 15.8841 12.0179 16.7319 12.643 17.357C13.2681 17.9821 14.1159 18.3333 15 18.3333C15.884 18.3333 16.7319 17.9821 17.357 17.357C17.9821 16.7319 18.3333 15.8841 18.3333 15C18.3333 14.1159 17.9821 13.2681 17.357 12.643C16.7319 12.0179 15.884 11.6667 15 11.6667C14.1159 11.6667 13.2681 12.0179 12.643 12.643C12.0179 13.2681 11.6667 14.1159 11.6667 15Z" stroke="#26344F" stroke-width="1.5" stroke-linecap="round" stroke-linejoin="round"/>
</svg>
