<svg width="20" height="20" viewBox="0 0 20 20" fill="none" xmlns="http://www.w3.org/2000/svg">
<path d="M4.16667 14.9998H7.7C7.80968 15.0004 7.9184 14.9794 8.01993 14.9379C8.12146 14.8965 8.2138 14.8354 8.29167 14.7581L14.0583 8.98312L16.425 6.66645C16.5031 6.58898 16.5651 6.49682 16.6074 6.39527C16.6497 6.29372 16.6715 6.1848 16.6715 6.07479C16.6715 5.96478 16.6497 5.85586 16.6074 5.75431C16.5651 5.65276 16.5031 5.56059 16.425 5.48312L12.8917 1.90812C12.8142 1.83001 12.722 1.76802 12.6205 1.72571C12.5189 1.6834 12.41 1.66162 12.3 1.66162C12.19 1.66162 12.0811 1.6834 11.9795 1.72571C11.878 1.76802 11.7858 1.83001 11.7083 1.90812L9.35834 4.26645L3.57501 10.0415C3.49777 10.1193 3.43667 10.2117 3.3952 10.3132C3.35373 10.4147 3.3327 10.5234 3.33334 10.6331V14.1665C3.33334 14.3875 3.42114 14.5994 3.57742 14.7557C3.7337 14.912 3.94566 14.9998 4.16667 14.9998ZM12.3 3.67479L14.6583 6.03312L13.475 7.21645L11.1167 4.85812L12.3 3.67479ZM5.00001 10.9748L9.94167 6.03312L12.3 8.39145L7.35834 13.3331H5.00001V10.9748ZM17.5 16.6665H2.50001C2.27899 16.6665 2.06703 16.7543 1.91075 16.9105C1.75447 17.0668 1.66667 17.2788 1.66667 17.4998C1.66667 17.7208 1.75447 17.9328 1.91075 18.089C2.06703 18.2453 2.27899 18.3331 2.50001 18.3331H17.5C17.721 18.3331 17.933 18.2453 18.0893 18.089C18.2455 17.9328 18.3333 17.7208 18.3333 17.4998C18.3333 17.2788 18.2455 17.0668 18.0893 16.9105C17.933 16.7543 17.721 16.6665 17.5 16.6665Z" fill="#26344F"/>
</svg>
