<svg width="20" height="20" viewBox="0 0 20 20" fill="none" xmlns="http://www.w3.org/2000/svg">
<path d="M4.16667 14.1665C4.16667 14.6085 4.34227 15.0325 4.65483 15.345C4.96739 15.6576 5.39131 15.8332 5.83334 15.8332C6.27537 15.8332 6.69929 15.6576 7.01185 15.345C7.32441 15.0325 7.5 14.6085 7.5 14.1665M4.16667 14.1665C4.16667 13.7245 4.34227 13.3006 4.65483 12.988C4.96739 12.6754 5.39131 12.4998 5.83334 12.4998C6.27537 12.4998 6.69929 12.6754 7.01185 12.988C7.32441 13.3006 7.5 13.7245 7.5 14.1665M4.16667 14.1665H2.50001V10.8332M7.5 14.1665H12.5M12.5 14.1665C12.5 14.6085 12.6756 15.0325 12.9882 15.345C13.3007 15.6576 13.7246 15.8332 14.1667 15.8332C14.6087 15.8332 15.0326 15.6576 15.3452 15.345C15.6577 15.0325 15.8333 14.6085 15.8333 14.1665M12.5 14.1665C12.5 13.7245 12.6756 13.3006 12.9882 12.988C13.3007 12.6754 13.7246 12.4998 14.1667 12.4998C14.6087 12.4998 15.0326 12.6754 15.3452 12.988C15.6577 13.3006 15.8333 13.7245 15.8333 14.1665M15.8333 14.1665H17.5V9.1665M1.66667 4.1665H10.8333V14.1665M17.5 9.1665H10.8333M17.5 9.1665L15 4.99984H10.8333M2.50001 7.49984H5.83334" stroke="#26344F" stroke-width="1.5" stroke-linecap="round" stroke-linejoin="round"/>
</svg>
