<svg width="21" height="20" viewBox="0 0 21 20" fill="none" xmlns="http://www.w3.org/2000/svg">
<path d="M15.5 0.833328H8.83333C8.17029 0.833328 7.53441 1.09672 7.06557 1.56556C6.59673 2.0344 6.33333 2.67029 6.33333 3.33333H5.5C4.83696 3.33333 4.20107 3.59672 3.73223 4.06556C3.26339 4.5344 3 5.17029 3 5.83333V8.33333C3 8.99637 3.26339 9.63225 3.73223 10.1011C4.20107 10.5699 4.83696 10.8333 5.5 10.8333H10.5C10.721 10.8333 10.933 10.9211 11.0893 11.0774C11.2455 11.2337 11.3333 11.4456 11.3333 11.6667V12.5C10.8913 12.5 10.4674 12.6756 10.1548 12.9881C9.84226 13.3007 9.66667 13.7246 9.66667 14.1667V17.5C9.66667 17.942 9.84226 18.3659 10.1548 18.6785C10.4674 18.9911 10.8913 19.1667 11.3333 19.1667H13C13.442 19.1667 13.8659 18.9911 14.1785 18.6785C14.4911 18.3659 14.6667 17.942 14.6667 17.5V14.1667C14.6667 13.7246 14.4911 13.3007 14.1785 12.9881C13.8659 12.6756 13.442 12.5 13 12.5V11.6667C13 11.0036 12.7366 10.3677 12.2678 9.89889C11.7989 9.43005 11.163 9.16666 10.5 9.16666H5.5C5.27899 9.16666 5.06702 9.07886 4.91074 8.92258C4.75446 8.7663 4.66667 8.55434 4.66667 8.33333V5.83333C4.66667 5.61231 4.75446 5.40035 4.91074 5.24407C5.06702 5.08779 5.27899 4.99999 5.5 4.99999H6.33333C6.33333 5.66304 6.59673 6.29892 7.06557 6.76776C7.53441 7.2366 8.17029 7.49999 8.83333 7.49999H15.5C16.163 7.49999 16.7989 7.2366 17.2678 6.76776C17.7366 6.29892 18 5.66304 18 4.99999V3.33333C18 2.67029 17.7366 2.0344 17.2678 1.56556C16.7989 1.09672 16.163 0.833328 15.5 0.833328ZM13 14.1667V17.5H11.3333V14.1667H13ZM16.3333 4.99999C16.3333 5.22101 16.2455 5.43297 16.0893 5.58925C15.933 5.74553 15.721 5.83333 15.5 5.83333H8.83333C8.61232 5.83333 8.40036 5.74553 8.24408 5.58925C8.0878 5.43297 8 5.22101 8 4.99999V3.33333C8 3.11231 8.0878 2.90035 8.24408 2.74407C8.40036 2.58779 8.61232 2.49999 8.83333 2.49999H15.5C15.721 2.49999 15.933 2.58779 16.0893 2.74407C16.2455 2.90035 16.3333 3.11231 16.3333 3.33333V4.99999Z" fill="#26344F"/>
</svg>
