<svg width="24" height="24" viewBox="0 0 24 24" fill="none" xmlns="http://www.w3.org/2000/svg">
<path d="M3 8.25H7.5C7.77614 8.25 8 8.02614 8 7.75V3.25C8 2.14543 8.89543 1.25 10 1.25H13.5C14.6046 1.25 15.5 2.14543 15.5 3.25V7.75C15.5 8.02614 15.7239 8.25 16 8.25L20.5 8.25C21.6046 8.25 22.5 9.14543 22.5 10.25L22.5 13.75C22.5 14.8546 21.6046 15.75 20.5 15.75L16 15.75C15.7239 15.75 15.5 15.9739 15.5 16.25L15.5 20.75C15.5 21.8546 14.6046 22.75 13.5 22.75L10 22.75C8.89543 22.75 8 21.8546 8 20.75V16.25C8 15.9739 7.77614 15.75 7.5 15.75H3C1.89543 15.75 1 14.8546 1 13.75V10.25C1 9.14543 1.89543 8.25 3 8.25Z" stroke="#29284C" stroke-width="1.5"/>
</svg>
